<?xml version="1.0" encoding="utf-8"?>
<!-- Generator: Adobe Illustrator 19.0.0, SVG Export Plug-In . SVG Version: 6.00 Build 0)  -->
<svg version="1.1" id="Layer_1" xmlns="http://www.w3.org/2000/svg" xmlns:xlink="http://www.w3.org/1999/xlink" x="0px" y="0px"
	 viewBox="0 0 1920 494" style="enable-background:new 0 0 1920 494;" xml:space="preserve">
<style type="text/css">
	.st0{fill:#EE4351;}
</style>
<g id="XMLID_2397_">
	<rect id="XMLID_2411_" x="585" y="212" class="st0" width="41" height="153"/>
	<path id="XMLID_2410_" class="st0" d="M622.8,157.5c-4.8-4.3-10.5-6.4-17.1-6.4c-6.6,0-12.3,2.1-17.1,6.4
		c-4.8,4.3-7.3,10.2-7.3,17.6c0,7.5,2.4,13.4,7.3,17.6c4.8,4.3,10.5,6.4,17.1,6.4c6.6,0,12.3-2.1,17.1-6.4
		c4.8-4.3,7.2-10.2,7.2-17.6C630.1,167.7,627.6,161.8,622.8,157.5z"/>
	<path id="XMLID_23_" class="st0" d="M788,279.4V365h-43v-80.7c0-13.1-0.3-22.1-3.7-27.5c-3.3-5.2-7.9-7.8-16.6-7.8H706v116h-41V212
		h67c19.6,0,34,10.8,37.7,13.8c0,0,0,0,0,0c0.1,0.1,0.2,0.2,0.4,0.3c0.4,0.3,0.5,0.5,0.5,0.5c1.8,1.6,3.5,3.3,5,5.2
		c4.7,5.8,7.7,12.8,9.8,20.8C787.4,260.6,788,269.6,788,279.4z"/>
	<path id="XMLID_2408_" class="st0" d="M918.8,293.1c-3.4-3.7-8-7.2-13.8-10.4c-5.8-3.2-13.2-6.5-22.2-9.8c-4.4-1.7-8-3.2-10.8-4.5
		c-2.8-1.4-5.1-2.7-6.7-3.8c-1.6-1.2-2.7-2.4-3.3-3.7c-0.5-1.3-0.8-2.7-0.8-4.4c0-7.1,6.4-10.7,19.2-10.7c6.9,0,13.2,0.6,18.7,1.9
		c5.6,1.3,10.7,2.7,15.5,4.4l7.1-31.7c-4.7-1.8-11.1-3.5-19.1-5.1c-8-1.5-16.4-2.3-25.2-2.3c-17.5,0-31.3,3.9-41.3,11.8
		c-10,7.8-15,18.5-15,32c0,6.9,1,12.9,3,17.8c2,4.9,4.8,9.2,8.5,12.7c3.6,3.6,8.1,6.6,13.3,9.2c5.2,2.6,11,5,17.4,7.4
		c8.2,3.1,14.3,5.9,18.3,8.3c4,2.5,6,5.3,6,8.6c0,4.2-1.5,7-4.7,8.5c-3.1,1.5-8.4,2.2-15.9,2.2c-7.1,0-14.3-0.8-21.6-2.3
		c-7.3-1.5-14.4-3.7-21.3-6.4l-6.8,33.1c3.3,1.5,9.2,3.3,17.6,5.5c8.5,2.2,19.1,3.3,31.9,3.3c19.5,0,34.6-3.6,45.3-10.9
		c10.7-7.3,16-18,16-32.2c0-6-0.7-11.3-2.1-15.8C924.6,301,922.2,296.8,918.8,293.1z"/>
	<path id="XMLID_2407_" class="st0" d="M1034,328.3c-4.7,0.8-9.2,1.2-13.5,1.2c-9.1,0-16.6-2.5-19.6-7.7c-3-5.1-5.9-11.9-5.9-20.5
		V251h51v-35h-51v-41.6l-39,6.6v120.9c0,9.3,1.4,17.8,3.1,25.4c1.7,7.7,5,14.2,9.4,19.6c4.4,5.4,10.3,9.6,17.6,12.6
		c7.3,3,16.6,4.5,27.7,4.5c8.7,0,16.2-0.7,22.2-2.2c6-1.5,11.5-3.2,16.4-5.2l-5.7-31.7C1042.9,326.3,1038.7,327.4,1034,328.3z"/>
	<path id="XMLID_2404_" class="st0" d="M1175.4,228.8c-4.8-5.1-11.3-9-19.3-11.8c-8-2.7-18.1-4.1-30.1-4.1c-4.7,0-9.4,0.2-14.1,0.7
		c-4.7,0.5-9.1,1-13.3,1.6c-4.2,0.6-8.1,1.4-11.6,2.2c-3.6,0.8-6.5,1.6-8.9,2.3l5.2,32.8c4.9-1.8,10.8-3.2,17.5-4.2
		c6.7-1,13.6-1.5,20.5-1.5c10.4,0,16.9,2.1,21.1,6.3c4.2,4.2,5.5,9.8,5.5,16.7v3.8c-2-0.7-5.1-1.3-9.2-1.8
		c-4.1-0.5-8.4-0.7-13.7-0.7c-7.8,0-15.2,0.8-22.5,2.3c-7.3,1.6-13.7,4.1-19.3,7.5s-10.1,8.1-13.5,13.9c-3.4,5.8-5,13-5,21.3
		c0,8.8,1.5,16.1,4.4,22.2c2.9,6,7.1,10.9,12.6,14.6c5.5,3.7,12,6.4,19.6,8.1c7.6,1.6,17.3,2.5,26.6,2.5c1.3,0,2.1,0,5.1,0V363h54
		v-6.4v-7.2v-77.6c0-8.9-0.2-17.1-2.2-24.4C1182.8,240.1,1180.3,233.9,1175.4,228.8z M1111.7,328.5c-4.3-2.5-6.4-6.9-6.4-13.3
		c0-3.3,0.7-6,2.2-8.2c1.5-2.2,3.5-3.9,6-5.2c2.6-1.3,5.5-2.1,8.9-2.6c3.4-0.5,7-0.7,10.8-0.7c2.7,0,4.9,0.2,8.2,0.5
		c3.3,0.4,6.6,0.7,6.6,1.1v30.9c-2,0.4-4.3,0.6-8,0.8c-3.7,0.2-7.1,0.3-11.1,0.3C1121.5,332.2,1116,331,1111.7,328.5z"/>
	<path id="XMLID_2403_" class="st0" d="M1313.7,328.1c-5.7,0.9-10.9,1.4-15.9,1.4c-13.9,0-23.6-3.6-29.1-10.7
		c-5.6-7.1-8.3-17.1-8.3-30.1c0-12.2,3-22.1,8.9-29.5c5.9-7.5,14.9-11.2,27-11.2c5.7,0,10.8,0.5,15.3,1.6c4.6,1.1,8.8,2.4,12.6,3.8
		l8.5-32.6c-6-2.6-12.2-4.5-18.6-5.9c-6.4-1.4-13.4-2-21.1-2c-11.7,0-22.1,2-31.2,6c-9.1,4-16.9,9.4-23.3,16.3
		c-6.4,6.8-11.3,14.9-14.6,24.1c-3.4,9.2-5.1,19-5.1,29.4c0,10.8,1.4,20.8,4.2,30c2.8,9.2,7.3,17.2,13.4,23.9
		c6.1,6.8,13.9,12.1,23.4,16c9.5,3.9,20.8,5.9,33.9,5.9c8.6,0,16.4-0.7,23.5-2.2c7.1-1.5,13-3.2,17.8-5.2l-5.7-33.4
		C1324.6,325.7,1319.4,327.2,1313.7,328.1z"/>
	<path id="XMLID_2402_" class="st0" d="M1473.9,231.8c-4.6-5.8-10.9-10.4-18.6-13.5c-7.8-3.2-17.7-4.8-29.4-4.8c-0.5,0-1.9,0-1.9,0
		V212h-22v-63.6l-39,6.6V365h39V249h21.4c8.4,0,13.8,2.6,17,7.8c3.4,5.5,4.6,14.4,4.6,27.5V365h43v-85.6c0-9.9-1.6-18.8-3.6-26.8
		C1482.5,244.6,1478.6,237.7,1473.9,231.8z"/>
	<path id="XMLID_2399_" class="st0" d="M1624.7,228.8c-4.8-5.1-11.3-9-19.3-11.8c-8-2.7-18.1-4.1-30.1-4.1c-4.7,0-9.4,0.2-14.1,0.7
		c-4.7,0.5-9.1,1-13.3,1.6c-4.2,0.6-8.1,1.4-11.6,2.2c-3.6,0.8-6.5,1.6-8.9,2.3l5.2,32.8c4.9-1.8,10.8-3.2,17.5-4.2
		c6.7-1,13.6-1.5,20.5-1.5c10.4,0,17.3,2.1,21.5,6.3c4.2,4.2,5.9,9.8,5.9,16.7v3.8c-2-0.7-5.5-1.3-9.6-1.8
		c-4.1-0.5-8.6-0.7-13.9-0.7c-7.8,0-15.3,0.8-22.6,2.3c-7.3,1.6-13.7,4.1-19.4,7.5s-10.1,8.1-13.5,13.9c-3.4,5.8-5,13-5,21.3
		c0,8.8,1.5,16.1,4.4,22.2c2.9,6,7.1,10.9,12.6,14.6c5.5,3.7,12,6.4,19.6,8.1c7.6,1.6,15.7,2.5,25,2.5c1.3,0,1.5,0,3.5,0V363h58
		v-6.4v-7.2v-77.6c0-8.9-0.5-17.1-2.5-24.4C1632.4,240.1,1629.5,233.9,1624.7,228.8z M1560.9,328.5c-4.3-2.5-6.4-6.9-6.4-13.3
		c0-3.3,0.7-6,2.2-8.2c1.5-2.2,3.5-3.9,6-5.2c2.6-1.3,5.5-2.1,8.9-2.6c3.4-0.5,7-0.7,10.8-0.7c2.7,0,5.3,0.2,8.6,0.5
		c3.3,0.4,5,0.7,7,1.1v30.9c-2,0.4-4.7,0.6-8.4,0.8c-3.7,0.2-7.3,0.3-11.3,0.3C1570.9,332.2,1565.2,331,1560.9,328.5z"/>
	<path id="XMLID_2398_" class="st0" d="M1822.6,216c-1.5,4-3.1,14.1-4.8,21.9c-1.7,7.8-3.6,15.9-5.5,24.1c-1.9,8.2-4,16.6-6.2,24.9
		c-2.2,8.3-4.4,16.3-6.6,24c-2.4-8-4.7-16.2-6.8-24.6c-2.2-8.4-4.3-16.6-6.3-24.7c-2-8.1-3.9-16.3-5.7-23.9
		c-1.8-7.6-3.5-17.6-4.9-21.6h-29.5c-1.5,4-3.1,14-5.1,21.6c-1.9,7.6-3.9,15.6-6,23.7c-2.1,8.1-4.3,16.5-6.6,24.9
		c-2.3,8.4-4.6,16.6-7,24.7c-2.2-7.7-4.4-15.6-6.5-23.9c-2.1-8.3-4.1-16.5-6.1-24.7c-1.9-8.2-3.8-16.6-5.5-24.3
		c-1.7-7.8-3.3-17.9-4.8-21.9h-43c4,15,8.2,28.7,12.5,42.7c4.3,14,8.5,27.4,12.6,39.9c4.1,12.5,8.1,24.6,11.9,35.2
		c3.8,10.6,7.4,22.3,10.7,31.3h31.7c4.6-17,8.9-31.5,13-45.2c4.1-13.7,8-27.7,11.6-41.5c3.6,13.9,7.7,28,12,41.7
		c4.4,13.7,8.8,28.1,13.4,45.1h31.7c3.3-9,6.9-20.6,10.8-31.2c3.9-10.6,8-22.3,12.1-34.8c4.1-12.5,8.3-26.2,12.6-40.2
		c4.3-14,8.5-27.8,12.5-42.8H1822.6z"/>
</g>
<g id="XMLID_1898_">
	<path id="XMLID_2095_" class="st0" d="M366.6,136.4c0.6-3.4,1.2-6.9,1.2-10.5c0-33.5-27-60.6-60.4-60.6s-60.5,27.1-60.5,60.6
		c0,3.5,0.3,6.2,0.9,9.5C210,147.1,177.1,169,152.5,199H102v41h24.5h36.6h10.3c21.6-32,55.6-58.2,95.6-68.1c3.9-1,7.8-1.4,11.8-2.1
		c8.6-1.5,16.8-2,25.7-2c6.7,0,13.5,0.5,20.1,1.3c0.5,0.1,1.1,0.2,1.6,0.3c1.1,0.2,2.2,0.3,3.3,0.5c0.5,0.1,1.1,0.2,1.6,0.3
		c4.3,0.7,8,1.6,12.2,2.6C414.7,190.2,466,253,466,327.6V363H106.9l0,0H55v41h51.9H201h306v-76.4C507,238,447.9,162,366.6,136.4z
		 M324.4,128c-1.3-0.1-2.6-0.2-4-0.3c-2.3-0.2-4.5-0.3-6.8-0.4c-2.4-0.1-4.8-0.1-7.2-0.1c-2.4,0-4.7,0-7,0.1
		c-2.3,0.1-4.6,0.2-6.9,0.4c-0.9,0.1-1.8,0.2-2.7,0.2c-0.8,0.1-1.5,0.1-2.3,0.2c-0.1-0.7-0.1-1.5-0.1-2.2c0-11.2,9-20.2,20.2-20.2
		s20.2,9,20.2,20.2c0,0.8,0,1.6-0.2,2.4C326.5,128.1,325.5,128,324.4,128z"/>
	<polygon id="XMLID_2094_" class="st0" points="148.1,322 178,322 178,281 154.7,281 112.2,281 78,281 78,322 106.9,322 	"/>
	<path id="XMLID_1908_" class="st0" d="M294,195v77c-9,4.3-13.3,12.9-13.3,22.9c0,14.2,11.8,25.8,26.1,25.8
		c13.7,0,25.1-10.8,25.9-24.3l54.3-23.6l-9.5-21.8l-54.9,23.7c-1.3-1-2.6-1.9-4.6-2.7v-77H294z"/>
</g>
</svg>
