<?xml version="1.0" standalone="no"?>
<!DOCTYPE svg PUBLIC "-//W3C//DTD SVG 20010904//EN"
 "http://www.w3.org/TR/2001/REC-SVG-20010904/DTD/svg10.dtd">
<svg version="1.0" xmlns="http://www.w3.org/2000/svg"
 width="500.000000pt" height="500.000000pt" viewBox="0 0 500.000000 500.000000"
 preserveAspectRatio="xMidYMid meet">
<metadata>
Created by potrace 1.11, written by Peter Selinger 2001-2013
</metadata>
<g transform="translate(0.000000,500.000000) scale(0.100000,-0.100000)"
fill="#000000" stroke="none">
<path d="M2600 4154 c-169 -44 -315 -163 -388 -315 -48 -101 -62 -162 -62
-277 l0 -87 -82 -30 c-124 -43 -320 -143 -438 -223 -123 -82 -282 -222 -360
-315 l-55 -66 -247 0 -248 -1 0 -200 0 -200 353 0 352 1 42 57 c116 160 241
278 418 397 188 126 369 199 587 236 177 30 431 24 602 -15 678 -156 1163
-701 1236 -1388 5 -51 10 -186 10 -300 l0 -208 -2035 0 -2035 0 0 -200 0 -200
2241 0 2240 0 -3 498 c-5 547 -7 570 -73 802 -92 321 -262 608 -504 851 -213
212 -435 357 -706 460 l-100 38 3 73 c13 282 -187 549 -460 613 -79 18 -216
18 -288 -1z m242 -411 c52 -31 90 -87 95 -140 l5 -48 -197 0 -197 0 6 44 c14
106 103 176 209 166 27 -2 63 -12 79 -22z"/>
<path d="M2620 2514 l0 -376 -49 -44 c-61 -54 -86 -115 -85 -200 2 -179 191
-298 360 -228 70 29 135 110 149 184 l6 36 262 113 c144 63 264 116 266 118 4
3 -19 65 -65 170 l-23 51 -273 -118 c-256 -110 -274 -117 -295 -103 l-23 15 0
379 0 379 -115 0 -115 0 0 -376z"/>
<path d="M490 1830 l0 -200 490 0 490 0 0 200 0 200 -490 0 -490 0 0 -200z"/>
</g>
</svg>
